<svg width="18" height="18" viewBox="0 0 18 18" fill="none" xmlns="http://www.w3.org/2000/svg">
<path d="M12.1425 1.5H5.8575C3.1275 1.5 1.5 3.1275 1.5 5.8575V12.135C1.5 14.8725 3.1275 16.5 5.8575 16.5H12.135C14.865 16.5 16.4925 14.8725 16.4925 12.1425V5.8575C16.5 3.1275 14.8725 1.5 12.1425 1.5ZM12.66 9.3525C12.66 9.06 12.4275 8.8275 12.135 8.8275C11.8425 8.8275 11.61 9.06 11.61 9.3525V9.4875L9.57 7.4475C9.4575 7.335 9.3075 7.2825 9.15 7.2975C8.9925 7.3125 8.85 7.395 8.7675 7.53L8.0025 8.67L6.2175 6.885C6.1125 6.78 5.985 6.735 5.85 6.735C5.715 6.735 5.58 6.7875 5.4825 6.885C5.28 7.0875 5.28 7.4175 5.4825 7.6275L7.7175 9.8625C7.83 9.975 7.98 10.0275 8.1375 10.0125C8.295 9.9975 8.4375 9.915 8.52 9.78L9.285 8.64L10.8675 10.2225H10.7325C10.44 10.2225 10.2075 10.455 10.2075 10.7475C10.2075 11.04 10.44 11.2725 10.7325 11.2725H12.1275C12.195 11.2725 12.2625 11.2575 12.33 11.235C12.4575 11.1825 12.5625 11.0775 12.615 10.95C12.645 10.8825 12.6525 10.815 12.6525 10.7475V9.3525H12.66Z" fill="#FF0000"/>
</svg>